<svg width="972" height="242" viewBox="0 0 972 242" fill="none" xmlns="http://www.w3.org/2000/svg">
<path d="M91.325 241.15C73.5583 241.15 58.0667 237.792 44.85 231.075C31.6333 224.358 21.125 215.15 13.325 203.45C5.74167 191.533 1.3 177.775 0 162.175L29.25 160.225C30.7667 171.708 34.125 181.458 39.325 189.475C44.525 197.492 51.4583 203.558 60.125 207.675C69.0083 211.792 79.625 213.85 91.975 213.85C102.808 213.85 112.017 212.442 119.6 209.625C127.183 206.808 132.925 202.692 136.825 197.275C140.942 191.858 143 185.25 143 177.45C143 170.3 141.267 164.017 137.8 158.6C134.55 152.967 128.158 147.875 118.625 143.325C109.308 138.558 95.4417 133.9 77.025 129.35C59.2583 124.8 45.0667 119.817 34.45 114.4C24.05 108.983 16.4667 102.375 11.7 94.575C7.15 86.775 4.875 77.1333 4.875 65.65C4.875 52.65 7.90833 41.275 13.975 31.525C20.2583 21.5583 29.1417 13.8667 40.625 8.44999C52.1083 2.81666 65.7583 0 81.575 0C98.475 0 112.992 3.25 125.125 9.74999C137.258 16.0333 146.9 24.7 154.05 35.75C161.2 46.8 165.642 59.3667 167.375 73.45L138.125 75.4C136.825 66.0833 133.792 57.85 129.025 50.7C124.475 43.3333 118.192 37.5917 110.175 33.475C102.158 29.3583 92.4083 27.3 80.925 27.3C66.625 27.3 55.25 30.7667 46.8 37.7C38.35 44.4167 34.125 53.3 34.125 64.35C34.125 71.5 35.75 77.4583 39 82.225C42.4667 86.775 48.5333 90.8917 57.2 94.575C65.8667 98.0417 78.325 101.833 94.575 105.95C113.858 110.717 129.133 116.458 140.4 123.175C151.883 129.675 160.008 137.258 164.775 145.925C169.758 154.592 172.25 164.45 172.25 175.5C172.25 188.933 168.783 200.633 161.85 210.6C154.917 220.35 145.383 227.933 133.25 233.35C121.117 238.55 107.142 241.15 91.325 241.15Z" fill="white"/>
<path d="M332.852 239.567C315.224 239.567 298.75 236.524 283.43 230.438C268.32 224.352 254.994 215.852 243.451 204.939C232.119 194.027 223.2 181.435 216.694 167.164C210.398 152.684 207.25 137.154 207.25 120.575C207.25 103.786 210.503 88.1513 217.009 73.6708C223.514 59.1903 232.433 46.5986 243.766 35.8957C255.308 24.9829 268.635 16.5884 283.745 10.7122C299.065 4.62624 315.434 1.58325 332.852 1.58325C364.751 1.58325 390.459 6.8298 409.977 17.3229C429.494 27.816 444.709 41.7718 455.622 59.1904C466.534 76.399 471.991 96.8606 471.991 120.575C471.991 144.289 466.429 164.961 455.307 182.589C444.184 200.008 428.864 213.859 409.347 224.142C389.83 234.425 364.332 239.567 332.852 239.567ZM325.297 225.086C339.568 225.086 352.999 222.463 365.591 217.216C378.183 211.76 389.2 204.31 398.644 194.866C408.298 185.212 415.853 174.09 421.309 161.498C426.766 148.906 429.494 135.37 429.494 120.89C429.494 106.619 426.766 93.188 421.309 80.5963C415.853 68.0045 408.298 56.9868 398.644 47.543C389.2 37.8894 378.183 30.3343 365.591 24.8779C352.999 19.4215 339.568 16.6933 325.297 16.6933C310.817 16.6933 297.281 19.5264 284.689 25.1927C272.097 30.6491 261.08 38.2042 251.636 47.8578C242.402 57.5115 235.162 68.6341 229.915 81.2259C224.669 93.8176 222.045 107.039 222.045 120.89C222.045 139.358 226.662 156.776 235.896 173.145C245.13 189.305 257.722 202.001 273.671 211.235C289.831 220.469 307.039 225.086 325.297 225.086Z" fill="white"/>
<path d="M506.991 235.95V5.19995H545.991L619.766 205.4L693.216 5.19995H732.216V235.95H704.266V57.2L638.291 235.95H600.916L534.941 57.2V235.95H506.991Z" fill="white"/>
<path d="M767.216 235.95L850.416 5.19995H888.116L971.316 235.95H940.766L917.691 170.3H820.841L797.766 235.95H767.216ZM830.266 143H908.266L869.266 29.5749L830.266 143Z" fill="white"/>
</svg>
