<svg width="993" height="229" viewBox="0 0 993 229" fill="none" xmlns="http://www.w3.org/2000/svg">
<path d="M74.9182 228.984C63.6402 228.984 52.9664 227.171 42.8967 223.546C33.0285 219.72 23.6637 214.685 14.8024 208.442L9.66687 227.776H5.13552L0 156.784L4.22925 155.878C6.84736 166.351 10.3717 175.816 14.8024 184.275C19.4344 192.733 24.7713 199.983 30.8131 206.025C36.8549 211.865 43.4002 216.296 50.449 219.317C57.6991 222.338 65.0499 223.848 72.5015 223.848C81.7656 223.848 89.6199 222.137 96.0645 218.713C102.509 215.289 107.443 210.556 110.867 204.515C114.291 198.271 116.002 191.122 116.002 183.066C116.002 173.399 114.089 165.344 110.263 158.899C106.638 152.253 100.999 146.715 93.3457 142.284C85.8941 137.652 76.5294 133.524 65.2513 129.898C55.5845 126.676 46.9246 123.051 39.2716 119.023C31.6187 114.995 25.0734 110.363 19.6358 105.127C14.1982 99.6895 9.96896 93.5471 6.94806 86.6997C4.12856 79.8523 2.71881 71.998 2.71881 63.1367C2.71881 55.2824 3.92716 48.1329 6.34388 41.6884C8.96199 35.0424 12.4864 29.202 16.917 24.1672C21.5491 18.9309 26.886 14.5003 32.9278 10.8752C38.9696 7.25015 45.5148 4.53135 52.5636 2.71881C59.8137 0.906273 67.366 0 75.2203 0C85.2899 0 94.6547 1.81254 103.315 5.43761C111.975 8.86129 119.426 13.0905 125.669 18.1254L128.992 0H133.221L141.68 67.9701L136.847 68.8764C133.221 54.5775 128.489 42.6953 122.648 33.2299C117.009 23.7644 110.363 16.7156 102.71 12.0836C95.2589 7.25014 86.6997 4.83343 77.0328 4.83343C64.3451 4.83343 54.4768 8.4585 47.4281 15.7087C40.5807 22.7574 37.157 32.0215 37.157 43.5009C37.157 52.5636 38.9696 60.0151 42.5946 65.8555C46.4211 71.6959 51.9594 76.63 59.2096 80.6579C66.4597 84.4844 75.2203 88.3108 85.4913 92.1373C95.561 95.561 104.624 99.3875 112.679 103.617C120.735 107.645 127.582 112.377 133.221 117.815C139.062 123.051 143.493 129.093 146.513 135.94C149.534 142.788 151.045 150.541 151.045 159.201C151.045 169.674 148.93 179.24 144.701 187.9C140.673 196.358 135.034 203.709 127.784 209.952C120.534 215.994 112.277 220.727 103.013 224.15C93.9499 227.373 84.5851 228.984 74.9182 228.984Z" fill="white"/>
<path d="M306.579 228.682C289.662 228.682 273.852 225.761 259.151 219.921C244.65 214.081 231.862 205.924 220.785 195.452C209.91 184.979 201.351 172.896 195.108 159.201C189.066 145.305 186.045 130.402 186.045 114.492C186.045 98.3804 189.167 83.3766 195.41 69.4805C201.653 55.5844 210.212 43.5008 221.087 33.2298C232.164 22.7573 244.952 14.7016 259.453 9.06259C274.154 3.2222 289.863 0.302002 306.579 0.302002C337.19 0.302002 361.861 5.33683 380.591 15.4065C399.32 25.4761 413.921 38.8688 424.394 55.5844C434.866 72.0986 440.102 91.7344 440.102 114.492C440.102 137.249 434.765 157.086 424.091 174.003C413.418 190.719 398.716 204.011 379.986 213.879C361.257 223.748 336.788 228.682 306.579 228.682ZM299.329 214.786C313.023 214.786 325.912 212.268 337.996 207.233C350.08 201.997 360.653 194.848 369.715 185.785C378.979 176.521 386.23 165.847 391.466 153.763C396.702 141.68 399.32 128.69 399.32 114.794C399.32 101.099 396.702 88.2101 391.466 76.1265C386.23 64.0429 378.979 53.4698 369.715 44.4071C360.653 35.143 350.08 27.8928 337.996 22.6566C325.912 17.4204 313.023 14.8023 299.329 14.8023C285.432 14.8023 272.443 17.5211 260.359 22.9587C248.275 28.1949 237.702 35.4451 228.64 44.7092C219.778 53.9732 212.83 64.6471 207.795 76.7307C202.761 88.8142 200.243 101.502 200.243 114.794C200.243 132.517 204.674 149.232 213.535 164.941C222.396 180.448 234.48 192.632 249.786 201.494C265.293 210.355 281.807 214.786 299.329 214.786Z" fill="white"/>
<path d="M475.102 224.755V221.13L491.113 219.015C494.738 218.411 497.155 217.102 498.363 215.088C499.773 212.872 500.578 208.945 500.78 203.306L511.655 25.0734C512.058 19.6358 511.554 15.91 510.144 13.8961C508.735 11.8822 505.814 10.5731 501.384 9.96895L485.071 7.85431V4.22925H555.458L611.042 157.087H611.344L666.023 4.22925H734.597V7.85431L718.586 9.96895C715.364 10.3717 712.847 11.4794 711.034 13.2919C709.423 14.9031 708.718 18.8302 708.919 25.0734L719.19 204.817C719.593 209.852 720.298 213.376 721.305 215.39C722.513 217.404 725.132 218.612 729.159 219.015L744.868 221.432V224.755H652.429V221.13L668.741 219.015C672.568 218.411 675.186 217.202 676.596 215.39C678.207 213.577 678.811 209.751 678.408 203.91L668.741 18.4275H668.439L607.115 190.618H582.948L519.207 18.4275H518.905L508.332 204.213C508.13 209.65 508.533 213.376 509.54 215.39C510.749 217.404 513.568 218.713 517.999 219.317L533.707 221.432V224.755H475.102Z" fill="white"/>
<path d="M779.868 224.755V221.13L790.743 219.317C794.368 218.511 797.289 217.202 799.504 215.39C801.719 213.376 803.935 209.046 806.15 202.4L872.005 4.22925H901.006L967.466 202.702C969.278 208.341 970.99 212.268 972.601 214.484C974.212 216.497 977.233 217.907 981.664 218.713L992.237 220.827V224.755H901.912V221.13L916.413 219.317C920.44 218.914 922.857 217.605 923.663 215.39C924.468 212.973 924.066 209.147 922.454 203.91L906.746 149.836H831.223L814.306 202.4C812.695 207.636 812.494 211.664 813.702 214.484C814.911 217.303 817.831 218.914 822.463 219.317L839.078 221.432V224.755H779.868ZM833.338 144.399H904.631L869.891 32.6257H869.287L833.338 144.399Z" fill="white"/>
</svg>
